<svg width="661.701" height="75.201" viewBox="0 0 661.701 75.201" xmlns="http://www.w3.org/2000/svg"><g id="svgGroup" stroke-linecap="round" fill-rule="evenodd" font-size="9pt" stroke="#000" stroke-width="0.25mm" fill="#000" style="stroke:#000;stroke-width:0.25mm;fill:#000"><path d="M 367.2 68.1 L 372 60.1 Q 375.6 63.1 380.1 65 A 23.348 23.348 0 0 0 385.47 66.51 A 32.118 32.118 0 0 0 390.6 66.9 A 27.981 27.981 0 0 0 395.147 66.554 Q 397.57 66.154 399.531 65.293 A 13.701 13.701 0 0 0 402 63.9 Q 406.048 61.008 406.195 56.166 A 12.116 12.116 0 0 0 406.2 55.8 A 11.94 11.94 0 0 0 405.863 52.907 A 9.816 9.816 0 0 0 405 50.65 A 8.097 8.097 0 0 0 403.8 48.994 Q 402.53 47.613 400.384 46.271 A 25.81 25.81 0 0 0 400.35 46.25 Q 397.234 44.308 391.465 42.08 A 118.584 118.584 0 0 0 390.2 41.6 Q 383 38.8 378.7 35.95 A 21.931 21.931 0 0 1 375.611 33.502 Q 373.894 31.853 372.838 29.987 A 13.303 13.303 0 0 1 372.55 29.45 Q 370.7 25.8 370.7 20.8 Q 370.7 15.8 373.45 11.75 Q 376.2 7.7 381.55 5.25 A 25.558 25.558 0 0 1 387.45 3.415 Q 390.693 2.8 394.5 2.8 Q 400.7 2.8 405.65 4.05 Q 410.6 5.3 415.3 7.6 L 411.8 15.7 A 31.496 31.496 0 0 0 407.674 13.681 A 41.686 41.686 0 0 0 403.85 12.35 Q 399.3 11 394.3 11 A 27.187 27.187 0 0 0 390.27 11.28 Q 388.138 11.6 386.4 12.287 A 12.616 12.616 0 0 0 383.9 13.6 A 9.902 9.902 0 0 0 381.737 15.565 A 7.359 7.359 0 0 0 380.1 20.3 A 10.464 10.464 0 0 0 380.392 22.822 A 8.562 8.562 0 0 0 381.2 24.9 Q 382.256 26.819 385.291 28.647 A 23.503 23.503 0 0 0 385.55 28.8 A 33.003 33.003 0 0 0 387.766 29.972 Q 390.035 31.075 393.246 32.323 A 130.016 130.016 0 0 0 395.3 33.1 A 81.228 81.228 0 0 1 400.278 35.129 Q 404.664 37.1 407.65 39.2 A 26.044 26.044 0 0 1 410.69 41.677 Q 412.913 43.806 414.1 46.15 A 17.579 17.579 0 0 1 415.841 52.013 A 22.155 22.155 0 0 1 416 54.7 A 21.71 21.71 0 0 1 415.333 60.201 A 17.105 17.105 0 0 1 412.75 65.8 Q 409.5 70.4 403.75 72.8 A 30.521 30.521 0 0 1 396.34 74.804 A 40.027 40.027 0 0 1 390.6 75.2 Q 383.3 75.2 377.3 73.25 A 38.206 38.206 0 0 1 371.933 71.068 A 28.433 28.433 0 0 1 367.2 68.1 Z M 166.9 74 L 157.9 74 L 157.9 0 L 166.9 0 L 166.9 30.3 Q 169.7 26.2 174 23.5 A 17.572 17.572 0 0 1 181.125 20.991 A 22.595 22.595 0 0 1 184.1 20.8 A 23.225 23.225 0 0 1 189.165 21.318 Q 194.259 22.456 197.25 26.1 Q 201.375 31.126 201.588 39.209 A 33.764 33.764 0 0 1 201.6 40.1 L 201.6 74 L 192.6 74 L 192.6 41.1 Q 192.6 35.5 190 32.1 A 8.42 8.42 0 0 0 183.842 28.753 A 11.979 11.979 0 0 0 182.7 28.7 A 13.23 13.23 0 0 0 175.987 30.566 A 17.586 17.586 0 0 0 173.95 31.95 Q 169.8 35.2 166.9 39.6 L 166.9 74 Z M 467.7 55.8 L 467.7 22 L 476.7 22 L 476.7 54.6 A 22.981 22.981 0 0 0 476.954 58.134 Q 477.242 59.981 477.857 61.469 A 10.136 10.136 0 0 0 479.3 63.95 A 8.404 8.404 0 0 0 484.413 66.971 A 12.807 12.807 0 0 0 486.9 67.2 Q 491 67.2 494.85 65.55 Q 498.7 63.9 501.7 61.1 L 501.7 22 L 510.7 22 L 510.7 60.5 A 15.602 15.602 0 0 0 510.802 62.354 Q 511.134 65.116 512.55 66.15 Q 514.4 67.5 516.6 67.5 L 514.7 74.5 Q 505.4 74.5 503.2 67.1 Q 499.7 70.7 495.1 72.95 Q 490.5 75.2 485.2 75.2 Q 480.7 75.2 476.7 73.3 A 14.441 14.441 0 0 1 471.19 68.661 A 18.266 18.266 0 0 1 470.2 67.15 A 16.24 16.24 0 0 1 468.536 63.057 Q 467.7 59.905 467.7 55.8 Z M 64.8 71.5 L 56.1 75 L 48.3 55 L 15.9 55 L 8.1 74.8 L 0 71.5 L 27.4 4 L 37.8 4 L 64.8 71.5 Z M 290.9 69.8 L 294.7 62.3 A 18.557 18.557 0 0 0 297.844 64.426 Q 299.398 65.27 301.25 65.95 A 24.073 24.073 0 0 0 308.861 67.387 A 27.464 27.464 0 0 0 309.7 67.4 Q 315.092 67.4 317.935 65.685 A 7.738 7.738 0 0 0 318.15 65.55 Q 321 63.7 321 60.8 A 7.123 7.123 0 0 0 320.686 58.653 A 6.212 6.212 0 0 0 319.95 57.1 A 6.384 6.384 0 0 0 319.021 56.006 Q 318.007 55.034 316.334 54.081 A 22.3 22.3 0 0 0 316.1 53.95 A 28.462 28.462 0 0 0 314.106 52.957 Q 311.99 51.995 309.001 50.946 A 103.602 103.602 0 0 0 308 50.6 A 46.616 46.616 0 0 1 303.602 48.857 Q 301.488 47.883 299.812 46.795 A 19.335 19.335 0 0 1 297.05 44.65 A 11.324 11.324 0 0 1 293.756 38.654 A 16.794 16.794 0 0 1 293.4 35.1 Q 293.4 29.1 298.65 24.95 Q 303.054 21.469 310.308 20.908 A 37.527 37.527 0 0 1 313.2 20.8 A 40.794 40.794 0 0 1 317.646 21.031 Q 319.954 21.284 321.97 21.815 A 25.234 25.234 0 0 1 322.1 21.85 Q 326 22.9 329.1 24.5 L 326.6 31.9 Q 323.9 30.3 320.45 29.3 A 25.024 25.024 0 0 0 315.967 28.453 A 31.837 31.837 0 0 0 312.8 28.3 A 20.632 20.632 0 0 0 309.863 28.495 Q 306.777 28.94 304.9 30.4 A 9.322 9.322 0 0 0 303.542 31.673 Q 302.84 32.492 302.505 33.365 A 4.529 4.529 0 0 0 302.2 35 A 4.921 4.921 0 0 0 303.695 38.552 A 7.082 7.082 0 0 0 304.3 39.1 Q 306.365 40.772 312.298 42.734 A 84.459 84.459 0 0 0 312.5 42.8 A 67.753 67.753 0 0 1 317.562 44.698 Q 323.489 47.217 326.3 50.1 Q 330.2 54.1 330.2 60.1 Q 330.2 66.848 324.949 70.855 A 16.618 16.618 0 0 1 324.55 71.15 Q 319.81 74.547 312.362 75.095 A 40.423 40.423 0 0 1 309.4 75.2 Q 303.5 75.2 298.75 73.7 A 30.883 30.883 0 0 1 294.91 72.215 Q 292.929 71.284 291.348 70.136 A 18.229 18.229 0 0 1 290.9 69.8 Z M 562 27.2 L 562 0 L 571 0 L 571 61.4 A 12.15 12.15 0 0 0 571.102 63.036 Q 571.434 65.47 572.85 66.35 Q 574.7 67.5 576.9 67.5 L 575 74.5 Q 565.5 74.5 563.4 66.9 Q 561.2 70 557.25 72.6 Q 553.3 75.2 547.3 75.2 Q 540.9 75.2 535.6 71.9 A 22.692 22.692 0 0 1 528.062 64.109 A 27.622 27.622 0 0 1 527.2 62.55 A 27.533 27.533 0 0 1 524.612 54.608 A 37.221 37.221 0 0 1 524.1 48.3 A 33.94 33.94 0 0 1 524.989 40.386 A 27.963 27.963 0 0 1 527.25 34.2 A 27.291 27.291 0 0 1 531.869 27.609 A 24.186 24.186 0 0 1 535.65 24.4 Q 540.9 20.8 547.2 20.8 A 21.642 21.642 0 0 1 551.472 21.202 A 15.942 15.942 0 0 1 556.15 22.9 A 34.343 34.343 0 0 1 558.73 24.489 Q 559.954 25.324 560.925 26.174 A 16.59 16.59 0 0 1 562 27.2 Z M 240.4 74 L 231 74 L 210.1 24.4 L 218.3 21 L 236 63.8 L 253.7 21 L 261.4 24.4 L 240.4 74 Z M 431 56.1 L 431 31.7 L 422 31.7 L 422 23.9 L 431.2 23.9 L 433.1 7.5 L 440 7.5 L 440 23.9 L 454.4 23.9 L 454.4 31.7 L 440 31.7 L 440 56.8 A 21.559 21.559 0 0 0 440.168 59.596 Q 440.641 63.202 442.45 64.9 Q 444.9 67.2 448.3 67.2 Q 450.8 67.2 453.05 66.4 Q 455.3 65.6 457.2 64.5 L 459.7 71.7 A 18.546 18.546 0 0 1 458.082 72.556 Q 457.28 72.935 456.334 73.308 A 43.365 43.365 0 0 1 454.3 74.05 Q 450.9 75.2 447.2 75.2 Q 439.7 75.2 435.35 70.25 A 16.116 16.116 0 0 1 432.122 64.348 Q 431.359 61.917 431.115 58.98 A 34.777 34.777 0 0 1 431 56.1 Z M 146.6 23.9 L 143.9 31.5 A 30.422 30.422 0 0 0 140.996 30.224 A 23.42 23.42 0 0 0 138.55 29.45 A 20.543 20.543 0 0 0 135.507 28.924 A 26.355 26.355 0 0 0 132.9 28.8 A 15.889 15.889 0 0 0 125.647 30.443 A 16.132 16.132 0 0 0 121.15 33.85 Q 116.4 38.9 116.4 47.8 A 25.192 25.192 0 0 0 117.105 53.86 A 21.45 21.45 0 0 0 118.4 57.6 A 18.564 18.564 0 0 0 121.31 62.177 A 16.275 16.275 0 0 0 123.95 64.6 Q 127.5 67.2 132.3 67.2 Q 135.465 67.2 137.868 66.61 A 15.08 15.08 0 0 0 138.8 66.35 Q 141.489 65.503 144.576 63.912 A 49.095 49.095 0 0 0 144.6 63.9 L 147.4 71.5 Q 144.3 73.2 140.45 74.2 Q 136.6 75.2 131.7 75.2 A 26.803 26.803 0 0 1 124.661 74.31 A 22.074 22.074 0 0 1 118.75 71.75 Q 113.2 68.3 110.2 62.15 Q 107.2 56 107.2 48 Q 107.2 40.5 110.25 34.3 Q 113.3 28.1 119 24.45 A 23.067 23.067 0 0 1 128.668 21.029 A 29.608 29.608 0 0 1 132.4 20.8 Q 136.8 20.8 140.15 21.6 Q 143.5 22.4 146.6 23.9 Z M 82.8 74 L 73.8 74 L 73.8 22 L 82.5 22 L 82.5 33.3 Q 83.8 30 86 27.15 Q 88.2 24.3 91.5 22.55 A 14.817 14.817 0 0 1 96.18 21.026 A 19.459 19.459 0 0 1 99.2 20.8 Q 100.7 20.8 102.2 20.95 A 18.972 18.972 0 0 1 103.255 21.084 Q 103.755 21.162 104.182 21.262 A 8.817 8.817 0 0 1 104.7 21.4 L 102 30.7 A 9.763 9.763 0 0 0 99.855 30.088 Q 98.759 29.9 97.5 29.9 A 12.958 12.958 0 0 0 90.87 31.746 A 15.609 15.609 0 0 0 90.45 32 Q 87.122 34.086 84.978 38.442 A 22.927 22.927 0 0 0 84.95 38.5 Q 83.187 42.107 82.87 47.328 A 39.09 39.09 0 0 0 82.8 49.7 L 82.8 74 Z M 622.5 71.75 A 24.559 24.559 0 0 0 627.098 73.84 Q 631.153 75.2 635.8 75.2 Q 643.2 75.2 649.05 71.8 Q 654.9 68.4 658.3 62.25 A 26.255 26.255 0 0 0 660.953 55.109 A 34.184 34.184 0 0 0 661.7 47.8 A 34.542 34.542 0 0 0 661.215 41.891 A 25.795 25.795 0 0 0 658.25 33.45 Q 654.8 27.4 648.95 24.1 A 24.848 24.848 0 0 0 644.309 22.073 A 27.738 27.738 0 0 0 635.8 20.8 A 31.325 31.325 0 0 0 634.22 20.839 A 26.169 26.169 0 0 0 622.6 24.1 Q 616.7 27.4 613.3 33.5 A 26.023 26.023 0 0 0 610.551 41.09 A 35.006 35.006 0 0 0 609.9 48 A 34.82 34.82 0 0 0 610.165 52.354 A 27.451 27.451 0 0 0 613.25 62.15 Q 616.6 68.3 622.5 71.75 Z M 279.4 74 L 270.4 74 L 270.4 22 L 279.4 22 L 279.4 74 Z M 597.9 74 L 588.9 74 L 588.9 22 L 597.9 22 L 597.9 74 Z M 635.8 67.2 Q 643.7 67.2 648.1 61.85 A 18.802 18.802 0 0 0 651.919 53.76 A 27.105 27.105 0 0 0 652.5 48 Q 652.5 42.8 650.3 38.45 A 19.198 19.198 0 0 0 646.128 32.881 A 18.17 18.17 0 0 0 644.35 31.45 Q 640.6 28.8 635.8 28.8 A 19.249 19.249 0 0 0 630.574 29.472 A 14.037 14.037 0 0 0 623.5 34 A 17.878 17.878 0 0 0 619.826 41.374 Q 619.1 44.306 619.1 47.8 Q 619.1 53 621.3 57.45 A 19.437 19.437 0 0 0 624.83 62.49 A 17.627 17.627 0 0 0 627.25 64.55 Q 631 67.2 635.8 67.2 Z M 562 60.9 L 562 35.1 A 15.847 15.847 0 0 0 559.889 32.927 Q 558.768 31.964 557.369 31.066 A 28.139 28.139 0 0 0 556.7 30.65 Q 553.3 28.6 549.2 28.6 A 14.946 14.946 0 0 0 544.244 29.4 A 13.385 13.385 0 0 0 540.8 31.2 A 16.69 16.69 0 0 0 535.63 37.35 A 19.924 19.924 0 0 0 535.25 38.15 A 22.19 22.19 0 0 0 533.51 44.514 A 28.113 28.113 0 0 0 533.3 48 A 24.757 24.757 0 0 0 533.893 53.519 A 20.327 20.327 0 0 0 535.4 57.85 A 18.205 18.205 0 0 0 538.44 62.363 A 16.122 16.122 0 0 0 541.15 64.7 Q 544.8 67.2 549.3 67.2 Q 553 67.2 556.35 65.45 Q 559.7 63.7 562 60.9 Z M 32.1 13.4 L 18.9 47 L 45.2 47 L 32.1 13.4 Z M 270.537 11.288 A 5.973 5.973 0 0 0 274.9 13.1 A 8.175 8.175 0 0 0 276.396 12.969 A 5.647 5.647 0 0 0 279.5 11.35 Q 281.2 9.6 281.2 6.8 A 7.26 7.26 0 0 0 281.2 6.719 A 6.06 6.06 0 0 0 279.35 2.35 A 7.395 7.395 0 0 0 279.292 2.293 A 6.059 6.059 0 0 0 274.9 0.5 A 8.264 8.264 0 0 0 273.244 0.658 A 5.661 5.661 0 0 0 270.3 2.2 A 5.588 5.588 0 0 0 268.829 4.832 A 7.987 7.987 0 0 0 268.6 6.8 A 5.992 5.992 0 0 0 269.092 9.219 A 6.643 6.643 0 0 0 270.45 11.2 A 7.466 7.466 0 0 0 270.537 11.288 Z M 589.037 11.288 A 5.973 5.973 0 0 0 593.4 13.1 A 8.175 8.175 0 0 0 594.896 12.969 A 5.647 5.647 0 0 0 598 11.35 Q 599.7 9.6 599.7 6.8 A 7.26 7.26 0 0 0 599.7 6.719 A 6.06 6.06 0 0 0 597.85 2.35 A 7.395 7.395 0 0 0 597.792 2.293 A 6.059 6.059 0 0 0 593.4 0.5 A 8.264 8.264 0 0 0 591.744 0.658 A 5.661 5.661 0 0 0 588.8 2.2 A 5.588 5.588 0 0 0 587.329 4.832 A 7.987 7.987 0 0 0 587.1 6.8 A 5.992 5.992 0 0 0 587.592 9.219 A 6.643 6.643 0 0 0 588.95 11.2 A 7.466 7.466 0 0 0 589.037 11.288 Z" vector-effect="non-scaling-stroke"/></g></svg>